<svg width="56" height="56" viewBox="0 0 56 56" fill="none" xmlns="http://www.w3.org/2000/svg">
<path d="M0.566002 27.9943H55.434" stroke="#A57F2C" stroke-width="1.2" stroke-miterlimit="10"/>
<path d="M27.9943 0.566002V55.434" stroke="#A57F2C" stroke-width="1.2" stroke-linejoin="round"/>
<path d="M27.9943 55.4227C43.1426 55.4227 55.4227 43.1426 55.4227 27.9943C55.4227 12.8461 43.1426 0.566002 27.9943 0.566002C12.8461 0.566002 0.566002 12.8461 0.566002 27.9943C0.566002 43.1426 12.8461 55.4227 27.9943 55.4227Z" stroke="#A57F2C" stroke-width="1.2" stroke-miterlimit="10"/>
<path d="M18.0667 24.5078C17.512 21.4514 19.5949 18.6893 22.7532 18.6214C23.0135 18.6214 23.2286 18.8025 23.2852 19.0402C23.9191 22.1419 21.7004 24.7795 18.5987 24.9266C18.3384 24.9266 18.112 24.7568 18.0667 24.5078Z" stroke="#A57F2C" stroke-width="1.2" stroke-miterlimit="10"/>
<path d="M19.3685 23.3645L22.0627 20.2062" stroke="#A57F2C" stroke-width="1.2" stroke-miterlimit="10"/>
<path d="M13.2217 22.0853C10.5276 20.5458 9.74651 17.1837 11.7275 14.7047C11.886 14.5009 12.169 14.4556 12.3954 14.5688C15.1801 16.0744 15.7801 19.4704 13.8896 21.9495C13.7311 22.1532 13.4481 22.2098 13.2217 22.0853Z" stroke="#A57F2C" stroke-width="1.2" stroke-miterlimit="10"/>
<path d="M13.1878 20.342L12.5086 16.2668" stroke="#A57F2C" stroke-width="1.2" stroke-miterlimit="10"/>
<path d="M20.9986 8.37679C22.3343 11.1842 21.0552 14.3877 18.0214 15.2933C17.7724 15.3612 17.512 15.248 17.3988 15.0216C15.9725 12.203 17.4215 9.06731 20.376 8.10511C20.625 8.02587 20.8854 8.15039 20.9986 8.37679Z" stroke="#A57F2C" stroke-width="1.2" stroke-miterlimit="10"/>
<path d="M20.0251 9.82575L18.2591 13.5727" stroke="#A57F2C" stroke-width="1.2" stroke-miterlimit="10"/>
<path d="M31.9111 17.1158C35.5674 12.0218 41.3519 12.0558 44.5215 17.6479C44.7819 18.112 44.7479 18.7459 44.4536 19.1647C40.8312 24.4625 35.058 24.021 31.8431 18.6327C31.5715 18.1799 31.6167 17.5347 31.9111 17.1158Z" stroke="#A57F2C" stroke-width="1.2" stroke-miterlimit="10"/>
<path d="M45.2007 18.0327C44.9177 18.3157 44.8951 18.7685 45.1554 19.0742C45.1554 19.0742 47.8722 22.4475 48.0647 22.2664C48.2571 22.0853 48.11 15.848 48.11 15.848C48.11 15.5989 47.8156 15.4857 47.6458 15.6555L45.2007 18.0441V18.0327Z" stroke="#A57F2C" stroke-width="1.2" stroke-miterlimit="10"/>
<path d="M13.1991 44.7932V46.2535C13.1991 47.0006 13.8104 47.6006 14.5575 47.6006H17.5573C18.3044 47.5892 18.9044 46.978 18.9044 46.2422V44.7366C18.9044 44.6574 18.9044 44.5781 18.9157 44.4989L20.6816 34.6618C20.8288 33.8241 20.1722 33.0544 19.3232 33.077L11.9086 33.2468C11.037 33.2695 10.4144 34.0958 10.6408 34.9335L13.1538 44.4649C13.1878 44.5781 13.1991 44.6913 13.1991 44.8045V44.7932Z" stroke="#A57F2C" stroke-width="1.2" stroke-miterlimit="10"/>
<path d="M20.5458 33.9034L24.3153 34.9788C24.9832 35.1486 24.87 36.19 24.1908 36.224L20.2741 36.5296" stroke="#A57F2C" stroke-width="1.2" stroke-miterlimit="10"/>
<path d="M10.9691 36.5296L7.05235 36.224C6.36183 36.19 6.27127 35.1486 6.92783 34.9788L10.6974 33.9034" stroke="#A57F2C" stroke-width="1.2" stroke-miterlimit="10"/>
<path d="M11.92 33.2242V31.3337" stroke="#A57F2C" stroke-width="1.2" stroke-miterlimit="10"/>
<path d="M19.8213 33.2242V31.3337" stroke="#A57F2C" stroke-width="1.2" stroke-miterlimit="10"/>
<path d="M42.5971 34.5713L44.3517 40.2879C45.2686 43.265 43.5933 46.412 40.6274 47.3176C36.4504 48.7439 32.1941 44.4083 33.5977 40.2879L35.3523 34.5713C36.3711 31.0168 41.6123 31.0847 42.6084 34.5713H42.5971Z" stroke="#A57F2C" stroke-width="1.2" stroke-miterlimit="10"/>
</svg>
