<svg width="61" height="50" viewBox="0 0 61 50" fill="none" xmlns="http://www.w3.org/2000/svg">
<g clip-path="url(#clip0_6421_49262)">
<path d="M16.649 35.99H1.05872V49.2417H60.2617V35.99H45.411" stroke="#A57F2C" stroke-width="1.2" stroke-miterlimit="10" stroke-linecap="round"/>
<path d="M44.9513 34.7508H17.0088V38.7483H44.9513V34.7508Z" stroke="#A57F2C" stroke-width="1.2" stroke-miterlimit="10" stroke-linecap="round"/>
<path d="M11.0125 42.0063V49.2617H7.01501V42.0063C7.01501 40.887 7.89446 40.0075 9.01377 40.0075C10.1331 40.0075 11.0125 40.887 11.0125 42.0063Z" stroke="#A57F2C" stroke-width="1.2" stroke-miterlimit="10" stroke-linecap="round"/>
<path d="M55.0051 42.0063V49.2417H51.0076V42.0063C51.0076 40.887 51.887 40.0075 53.0063 40.0075C54.1256 40.0075 55.0051 40.887 55.0051 42.0063Z" stroke="#A57F2C" stroke-width="1.2" stroke-miterlimit="10" stroke-linecap="round"/>
<path d="M18.9475 39.1081V49.2617" stroke="#A57F2C" stroke-width="1.2" stroke-miterlimit="10" stroke-linecap="round"/>
<path d="M27.0425 39.0281V49.2017" stroke="#A57F2C" stroke-width="1.2" stroke-miterlimit="10" stroke-linecap="round"/>
<path d="M35.0975 38.9282V49.0818" stroke="#A57F2C" stroke-width="1.2" stroke-miterlimit="10" stroke-linecap="round"/>
<path d="M42.9525 38.8082V48.9619" stroke="#A57F2C" stroke-width="1.2" stroke-miterlimit="10" stroke-linecap="round"/>
<path d="M46.9301 26.2361V35.6902" stroke="#A57F2C" stroke-width="1.2" stroke-miterlimit="10" stroke-linecap="round"/>
<path d="M58.9825 26.2361V35.6902" stroke="#A57F2C" stroke-width="1.2" stroke-miterlimit="10" stroke-linecap="round"/>
<path d="M38.8351 34.7708H23.005V25.2967C23.005 20.9594 26.5828 17.4016 30.9201 17.4016C35.2573 17.4016 38.8351 20.9794 38.8351 25.3167V34.7708Z" stroke="#A57F2C" stroke-width="1.2" stroke-miterlimit="10" stroke-linecap="round"/>
<path d="M35.4372 34.7108H26.4028V25.9763C26.4028 23.4978 28.4416 21.4791 30.92 21.4791C33.3985 21.4791 35.4372 23.5178 35.4372 25.9963V34.7308V34.7108Z" stroke="#A57F2C" stroke-width="1.2" stroke-miterlimit="10" stroke-linecap="round"/>
<path d="M22.9451 22.7383H20.8064V14.7433H41.2136V22.7383H39.055" stroke="#A57F2C" stroke-width="1.2" stroke-miterlimit="10" stroke-linecap="round"/>
<path d="M39.7945 14.7433H22.2455C23.4247 11.0056 26.8826 8.28731 31.02 8.28731C35.1574 8.28731 38.5953 11.0056 39.7945 14.7433Z" stroke="#A57F2C" stroke-width="1.2" stroke-miterlimit="10" stroke-linecap="round"/>
<path d="M29.0212 8.28732V6.0887H32.9788V8.28732" stroke="#A57F2C" stroke-width="1.2" stroke-miterlimit="10" stroke-linecap="round"/>
<path d="M56.2642 22.7183C56.2442 20.9194 54.7651 19.4603 52.9662 19.4603C51.1673 19.4603 49.6883 20.9394 49.6683 22.7183H45.6708V26.0562H60.2217V22.7183H56.2642Z" stroke="#A57F2C" stroke-width="1.2" stroke-miterlimit="10" stroke-linecap="round"/>
<path d="M12.3717 22.7183C12.3517 20.9194 10.8726 19.4603 9.07376 19.4603C7.27489 19.4603 5.79581 20.9394 5.77582 22.7183H1.77832V26.0562H16.3292V22.7183H12.3717Z" stroke="#A57F2C" stroke-width="1.2" stroke-miterlimit="10" stroke-linecap="round"/>
<path d="M15.01 26.336V35.6702" stroke="#A57F2C" stroke-width="1.2" stroke-miterlimit="10" stroke-linecap="round"/>
<path d="M15.3698 26.0962H22.945" stroke="#A57F2C" stroke-width="1.2" stroke-miterlimit="10" stroke-linecap="round"/>
<path d="M39.4547 26.0962H45.6508" stroke="#A57F2C" stroke-width="1.2" stroke-miterlimit="10" stroke-linecap="round"/>
<path d="M20.5465 17.4216C17.3285 17.4216 14.7102 19.6602 13.9906 22.6783" stroke="#A57F2C" stroke-width="1.2" stroke-miterlimit="10" stroke-linecap="round"/>
<path d="M41.5533 17.4216C44.7713 17.4216 47.3897 19.6602 48.1092 22.6783" stroke="#A57F2C" stroke-width="1.2" stroke-miterlimit="10" stroke-linecap="round"/>
<path d="M2.95752 26.2161V36.03" stroke="#A57F2C" stroke-width="1.2" stroke-miterlimit="10" stroke-linecap="round"/>
<path d="M11.0325 28.6746H7.01501V35.97H11.0325V28.6746Z" stroke="#A57F2C" stroke-width="1.2" stroke-miterlimit="10" stroke-linecap="round"/>
<path d="M54.945 28.6746H50.9275V35.97H54.945V28.6746Z" stroke="#A57F2C" stroke-width="1.2" stroke-miterlimit="10" stroke-linecap="round"/>
<path d="M30.96 1.49156V5.48906" stroke="#A57F2C" stroke-width="1.2" stroke-miterlimit="10" stroke-linecap="round"/>
<path d="M28.9213 2.03123L30.98 4.04997L33.0187 2.03123" stroke="#A57F2C" stroke-width="1.2" stroke-miterlimit="10" stroke-linecap="round"/>
</g>
<defs>
<clipPath id="clip0_6421_49262">
<rect width="61" height="50" fill="white"/>
</clipPath>
</defs>
</svg>
